<?xml version="1.0" standalone="no"?>
<!DOCTYPE svg PUBLIC "-//W3C//DTD SVG 20010904//EN"
 "http://www.w3.org/TR/2001/REC-SVG-20010904/DTD/svg10.dtd">
<svg version="1.0" xmlns="http://www.w3.org/2000/svg"
 width="360.000000pt" height="200.000000pt" viewBox="0 0 360.000000 200.000000"
 preserveAspectRatio="xMidYMid meet">
<metadata>
Created by potrace 1.16, written by Peter Selinger 2001-2019
</metadata>
<g transform="translate(0.000000,200.000000) scale(0.100000,-0.100000)"
fill="#000000" stroke="none">
<path d="M1232 1394 c-19 -25 -48 -54 -65 -65 -30 -18 -33 -18 -44 -2 -7 9
-13 34 -13 55 0 48 -14 49 -71 3 -24 -19 -47 -35 -51 -35 -4 0 -14 14 -23 30
-19 36 -44 38 -74 6 -38 -40 -74 -50 -109 -32 -54 28 -90 21 -137 -26 -48 -49
-82 -130 -91 -217 l-6 -56 -63 0 c-64 -1 -110 -20 -122 -51 -8 -21 -3 -24 68
-35 35 -5 79 -14 97 -20 l33 -11 -44 -39 c-42 -36 -76 -93 -64 -105 4 -5 46 4
109 22 15 4 16 1 7 -28 -36 -125 26 -236 126 -224 83 10 84 69 4 257 -43 100
-53 135 -53 183 -1 54 1 60 34 87 44 37 90 38 224 4 216 -55 340 -19 384 113
28 84 23 224 -8 229 -8 2 -30 -18 -48 -43z"/>
<path d="M923 970 c-48 -29 -67 -65 -67 -125 0 -60 19 -96 67 -126 45 -28 136
-23 172 11 31 29 31 37 3 61 -28 23 -42 24 -58 4 -17 -21 -56 -19 -80 5 -56
56 23 147 81 94 17 -15 20 -14 48 6 35 25 37 32 14 55 -39 39 -128 47 -180 15z"/>
<path d="M1150 845 l0 -145 40 0 40 0 0 55 0 55 45 0 45 0 0 -55 0 -55 40 0
40 0 0 145 0 145 -40 0 -40 0 0 -55 0 -55 -45 0 -45 0 0 55 0 55 -40 0 -40 0
0 -145z"/>
<path d="M1440 845 l0 -145 45 0 45 0 0 145 0 145 -45 0 -45 0 0 -145z"/>
<path d="M1650 983 c-8 -3 -26 -15 -38 -27 -70 -63 -69 -159 2 -225 39 -37
128 -41 176 -9 42 29 44 44 8 71 -26 19 -29 20 -46 4 -26 -24 -68 -21 -86 5
-46 65 28 144 85 92 16 -14 20 -14 48 7 17 13 31 26 31 29 0 4 -11 17 -25 30
-19 18 -39 24 -83 27 -31 1 -64 0 -72 -4z"/>
<path d="M1850 845 l0 -145 44 0 45 0 3 42 c2 23 8 43 14 45 7 2 25 -17 40
-42 28 -44 30 -45 82 -45 28 0 52 2 52 4 0 3 -24 40 -54 83 l-54 78 49 53 c27
29 49 58 49 63 0 5 -21 9 -47 9 -45 0 -50 -3 -90 -51 l-43 -51 0 51 0 51 -45
0 -45 0 0 -145z"/>
<path d="M2140 845 l0 -145 115 0 115 0 0 40 0 40 -75 0 c-60 0 -75 3 -75 15
0 12 14 15 65 15 l65 0 0 35 0 35 -65 0 c-51 0 -65 3 -65 15 0 12 15 15 75 15
l75 0 0 40 0 40 -115 0 -115 0 0 -145z"/>
<path d="M2400 845 l0 -145 40 0 40 0 0 72 0 71 56 -71 c50 -64 59 -72 90 -72
l34 0 0 145 0 145 -40 0 -39 0 -3 -65 -3 -66 -49 66 c-46 60 -53 65 -88 65
l-38 0 0 -145z"/>
<path d="M2700 846 l0 -146 45 0 45 0 0 45 c0 25 4 45 10 45 5 0 23 -20 40
-45 29 -42 34 -45 75 -45 52 0 55 9 20 56 -30 39 -30 39 -5 67 16 17 20 32 18
71 -4 73 -31 89 -153 94 l-95 4 0 -146z"/>
<path d="M2950 981 c0 -5 23 -46 50 -90 44 -71 50 -87 50 -136 l0 -55 45 0 45
0 0 56 c0 49 6 65 50 137 28 45 50 85 50 90 0 4 -21 7 -47 5 -45 -3 -49 -6
-72 -47 -26 -48 -27 -48 -63 18 -15 28 -22 31 -63 31 -25 0 -45 -4 -45 -9z"/>
</g>
</svg>
