<?xml version="1.0" standalone="no"?>
<!DOCTYPE svg PUBLIC "-//W3C//DTD SVG 20010904//EN"
 "http://www.w3.org/TR/2001/REC-SVG-20010904/DTD/svg10.dtd">
<svg version="1.0" xmlns="http://www.w3.org/2000/svg"
 width="360.000000pt" height="200.000000pt" viewBox="0 0 360.000000 200.000000"
 preserveAspectRatio="xMidYMid meet">
<metadata>
Created by potrace 1.16, written by Peter Selinger 2001-2019
</metadata>
<g transform="translate(0.000000,200.000000) scale(0.100000,-0.100000)"
fill="#000000" stroke="none">
<path d="M393 1298 c-28 -17 -31 -22 -21 -38 11 -17 14 -17 40 -4 28 14 32 13
148 -53 119 -67 120 -68 120 -104 0 -28 -5 -38 -20 -42 -28 -7 -25 -29 10 -62
l30 -29 30 29 c35 33 38 55 10 62 -17 4 -20 14 -20 57 l0 51 -135 78 c-74 42
-141 77 -148 76 -6 0 -26 -10 -44 -21z"/>
<path d="M254 1255 c-3 -8 -3 -18 0 -24 4 -5 -16 -22 -44 -38 l-50 -28 0 -165
0 -165 40 -23 c31 -17 40 -19 40 -8 0 8 6 16 13 19 7 2 -2 12 -20 23 l-33 19
0 135 0 135 42 24 c28 16 43 20 46 12 2 -6 12 -11 22 -11 13 0 22 11 29 38 15
51 15 50 -26 61 -49 14 -53 14 -59 -4z"/>
<path d="M348 1156 l-88 -51 0 -105 0 -105 91 -51 91 -51 89 51 89 51 0 105 0
105 -87 50 c-48 28 -90 51 -93 51 -3 1 -44 -21 -92 -50z"/>
<path d="M2320 1035 l0 -175 35 0 34 0 3 93 c3 87 4 92 26 95 42 6 52 -13 52
-104 l0 -84 35 0 35 0 0 90 c0 135 -25 169 -115 158 l-35 -4 0 53 0 53 -35 0
-35 0 0 -175z"/>
<path d="M3220 1035 l0 -175 35 0 34 0 3 93 c3 87 4 92 26 95 42 6 52 -13 52
-104 l0 -84 35 0 35 0 0 90 c0 135 -25 169 -115 158 l-35 -4 0 53 0 53 -35 0
-35 0 0 -175z"/>
<path d="M1100 1159 c0 -12 -16 -36 -35 -55 -37 -35 -44 -54 -20 -54 11 0 15
-13 15 -53 0 -61 14 -117 32 -129 7 -4 32 -8 56 -8 41 0 42 1 42 33 0 29 -3
33 -27 32 -27 0 -28 2 -31 63 l-3 62 31 0 c27 0 30 3 30 30 0 27 -3 30 -30 30
-28 0 -30 3 -30 35 0 24 -5 35 -15 35 -9 0 -15 -9 -15 -21z"/>
<path d="M2851 1145 c-7 -20 -23 -43 -37 -51 -27 -18 -32 -44 -9 -44 12 0 15
-13 15 -59 0 -62 13 -110 33 -123 7 -4 31 -8 55 -8 41 0 42 1 42 33 0 29 -3
33 -27 32 -27 0 -28 2 -31 63 l-3 62 31 0 c27 0 30 3 30 30 0 27 -3 30 -30 30
-28 0 -30 3 -30 35 0 46 -22 46 -39 0z"/>
<path d="M872 1103 c-7 -3 -19 -18 -28 -34 -21 -42 -2 -78 59 -107 26 -12 47
-27 47 -32 0 -14 -36 -12 -59 2 -15 9 -23 9 -35 -1 -39 -32 3 -71 76 -71 59 0
88 24 88 73 0 39 -18 59 -77 82 -24 10 -40 21 -37 26 8 13 48 11 62 -3 10 -10
17 -7 35 10 l22 23 -24 20 c-22 18 -96 26 -129 12z"/>
<path d="M1220 985 l0 -125 35 0 35 0 0 84 c0 96 12 118 52 92 22 -14 24 -14
40 14 25 44 2 59 -90 59 l-72 0 0 -124z"/>
<path d="M1459 1093 c-79 -49 -78 -170 1 -217 40 -23 121 -21 151 3 l24 20
-22 23 c-18 17 -25 20 -35 10 -19 -19 -73 -14 -93 8 -18 20 -17 20 78 20 l97
0 0 31 c0 39 -25 82 -60 103 -36 20 -107 20 -141 -1z"/>
<path d="M1708 1094 c-33 -18 -34 -25 -8 -49 16 -14 23 -16 32 -7 16 16 63 15
77 -2 9 -11 2 -15 -37 -20 -63 -8 -92 -35 -92 -85 0 -59 20 -70 124 -70 l88 0
-4 101 c-3 95 -4 101 -31 124 -33 28 -105 32 -149 8z"/>
<path d="M1920 985 l0 -125 35 0 35 0 0 90 c0 87 1 90 25 96 44 11 55 -9 55
-102 l0 -84 36 0 35 0 -3 90 c-3 87 -2 91 19 97 47 11 53 0 53 -97 l0 -90 35
0 35 0 0 100 c0 95 -2 102 -25 126 -23 23 -31 25 -78 20 -60 -7 -55 -7 -169 0
l-88 4 0 -125z"/>
<path d="M2598 1094 c-33 -17 -34 -25 -8 -49 16 -14 23 -15 34 -6 18 15 68 11
73 -5 2 -7 -15 -14 -43 -19 -83 -12 -117 -72 -73 -128 19 -25 25 -26 110 -26
l89 0 0 72 c0 89 -14 142 -43 162 -27 19 -103 19 -139 -1z"/>
<path d="M3028 1094 c-78 -42 -76 -178 2 -219 52 -27 119 -18 169 22 3 2 -6
14 -18 27 -22 23 -24 23 -51 8 -54 -31 -109 24 -82 83 15 32 55 42 86 22 22
-15 25 -14 45 7 l22 24 -27 21 c-32 25 -105 28 -146 5z"/>
<path d="M680 908 l0 -43 -120 -68 -120 -68 -40 22 c-30 17 -39 27 -34 41 7
24 -16 32 -62 23 -35 -6 -36 -7 -31 -42 8 -48 29 -70 48 -50 12 12 20 10 62
-15 26 -15 52 -28 57 -28 6 0 71 35 145 78 l135 77 0 58 c0 50 -2 57 -20 57
-17 0 -20 -7 -20 -42z"/>
</g>
</svg>
