<?xml version="1.0" standalone="no"?>
<!DOCTYPE svg PUBLIC "-//W3C//DTD SVG 20010904//EN"
 "http://www.w3.org/TR/2001/REC-SVG-20010904/DTD/svg10.dtd">
<svg version="1.0" xmlns="http://www.w3.org/2000/svg"
 width="360.000000pt" height="200.000000pt" viewBox="0 0 360.000000 200.000000"
 preserveAspectRatio="xMidYMid meet">
<metadata>
Created by potrace 1.16, written by Peter Selinger 2001-2019
</metadata>
<g transform="translate(0.000000,200.000000) scale(0.100000,-0.100000)"
fill="#000000" stroke="none">
<path d="M1946 1308 c-13 -19 -16 -59 -16 -243 0 -121 4 -225 8 -231 15 -23
51 -35 72 -24 29 16 40 43 40 101 l0 52 50 -66 c66 -87 90 -103 127 -85 15 7
30 24 34 38 7 23 7 24 8 3 1 -13 12 -30 25 -38 19 -13 28 -14 50 -4 29 13 34
29 38 102 l3 48 54 -71 c64 -85 81 -96 119 -78 44 21 40 54 -18 130 -27 37
-50 70 -50 74 0 4 20 29 45 55 41 44 45 51 34 71 -29 55 -61 50 -131 -19 l-58
-57 0 116 c0 129 -8 148 -59 148 -56 0 -58 -10 -60 -269 l-1 -184 -55 69 -55
69 45 45 c48 49 56 77 27 103 -31 28 -56 20 -115 -40 l-57 -58 0 116 c0 100
-3 118 -18 132 -26 24 -68 21 -86 -5z"/>
<path d="M1667 1176 c-21 -8 -48 -22 -59 -33 -52 -46 -74 -165 -44 -236 16
-38 76 -94 112 -103 47 -12 121 2 158 29 118 91 93 284 -46 342 -45 18 -71 18
-121 1z m107 -128 c37 -53 8 -138 -47 -138 -42 0 -63 39 -59 107 4 52 77 73
106 31z"/>
<path d="M2861 1177 c-69 -22 -131 -112 -131 -189 0 -66 44 -139 100 -168 117
-60 319 26 242 102 -21 22 -22 22 -69 5 -55 -19 -96 -22 -124 -7 -40 22 -17
30 84 30 92 0 106 2 122 20 17 19 18 26 6 68 -16 62 -54 110 -105 133 -46 21
-75 22 -125 6z"/>
<path d="M1237 1162 c-25 -28 -22 -47 37 -185 l55 -127 -25 -56 c-29 -65 -30
-95 -6 -117 24 -22 45 -21 70 1 25 21 192 408 192 444 0 30 -28 58 -58 58 -19
0 -62 -42 -62 -61 0 -5 -12 -34 -26 -66 l-25 -58 -29 73 c-16 41 -36 82 -46
93 -22 24 -56 24 -77 1z"/>
<path d="M2616 1164 c-25 -24 -29 -57 -24 -196 4 -121 7 -133 28 -150 29 -23
45 -23 70 2 18 18 20 33 20 173 0 136 -2 156 -18 170 -23 21 -56 22 -76 1z"/>
</g>
</svg>
