<?xml version="1.0" standalone="no"?>
<!DOCTYPE svg PUBLIC "-//W3C//DTD SVG 20010904//EN"
 "http://www.w3.org/TR/2001/REC-SVG-20010904/DTD/svg10.dtd">
<svg version="1.0" xmlns="http://www.w3.org/2000/svg"
 width="359.000000pt" height="200.000000pt" viewBox="0 0 359.000000 200.000000"
 preserveAspectRatio="xMidYMid meet">
<metadata>
Created by potrace 1.16, written by Peter Selinger 2001-2019
</metadata>
<g transform="translate(0.000000,200.000000) scale(0.100000,-0.100000)"
fill="#000000" stroke="none">
<path d="M615 1461 c-93 -58 -120 -151 -70 -245 14 -26 25 -48 25 -50 0 -1
-22 -17 -49 -35 -99 -64 -153 -165 -154 -286 -1 -149 96 -275 243 -319 71 -21
115 -20 195 5 110 34 191 122 221 241 20 78 12 149 -27 225 -35 70 -72 111
-123 138 -42 22 -53 34 -40 44 37 27 56 129 33 188 -13 34 -55 80 -91 99 -39
20 -127 18 -163 -5z m200 -384 c85 -44 134 -127 135 -225 0 -150 -100 -253
-247 -253 -180 0 -293 158 -241 335 15 50 98 137 148 154 47 15 168 9 205 -11z"/>
<path d="M684 1006 c-43 -19 -64 -53 -64 -102 0 -54 36 -101 86 -110 32 -6 34
-8 20 -22 -20 -20 -125 -28 -155 -13 -32 18 -25 -3 14 -37 92 -81 243 -32 275
89 33 121 -75 240 -176 195z"/>
<path d="M2300 1010 l0 -240 45 0 45 0 0 105 c0 99 2 107 25 130 26 27 82 34
103 13 8 -8 12 -52 12 -130 l0 -118 51 0 50 0 -3 146 -3 146 -33 29 c-43 39
-112 41 -166 4 l-36 -24 0 89 0 90 -45 0 -45 0 0 -240z"/>
<path d="M2700 1030 l0 -221 26 -26 c23 -23 31 -25 86 -20 33 3 61 7 63 9 3 2
2 21 -2 41 -5 34 -8 37 -38 37 -21 0 -35 6 -39 16 -3 9 -6 99 -6 200 l0 184
-45 0 -45 0 0 -220z"/>
<path d="M1170 1005 l0 -235 146 0 c148 0 169 4 211 43 45 41 38 136 -13 176
l-25 20 23 31 c17 24 23 44 22 82 0 45 -5 55 -37 84 l-37 34 -145 0 -145 0 0
-235z m266 118 c4 -16 2 -36 -7 -52 -14 -24 -20 -26 -84 -26 l-70 0 -3 53 -3
52 80 0 c79 0 81 -1 87 -27z m-6 -163 c26 -14 34 -57 15 -86 -14 -22 -22 -24
-95 -24 l-80 0 0 53 c0 30 3 57 7 60 10 11 132 8 153 -3z"/>
<path d="M2068 1173 c-3 -51 -6 -58 -25 -61 -19 -3 -23 -10 -23 -38 0 -30 3
-34 25 -34 l25 0 0 -114 c0 -133 10 -154 76 -163 52 -7 114 12 113 35 -1 43
-15 57 -55 57 l-39 0 -3 92 -3 92 38 3 c35 3 38 6 41 36 3 31 2 32 -37 32
l-41 0 0 60 0 60 -45 0 -44 0 -3 -57z"/>
<path d="M1915 1089 l-35 -31 0 26 c0 24 -3 26 -45 26 l-45 0 0 -170 0 -170
45 0 45 0 0 103 c0 119 6 132 70 151 43 13 45 15 48 55 3 38 1 41 -22 41 -14
0 -41 -14 -61 -31z"/>
<path d="M1620 940 l0 -170 45 0 45 0 0 170 0 170 -45 0 -45 0 0 -170z"/>
<path d="M2870 1103 c0 -5 29 -82 65 -173 58 -148 64 -168 54 -197 -9 -27 -15
-32 -47 -35 -35 -3 -37 -5 -40 -40 -3 -35 -1 -37 32 -43 40 -8 96 8 119 33 13
14 167 435 167 456 0 3 -20 6 -44 6 l-44 0 -32 -102 c-17 -57 -33 -111 -36
-121 -3 -9 -9 -15 -13 -13 -3 3 -24 57 -46 120 l-40 116 -47 0 c-27 0 -48 -3
-48 -7z"/>
</g>
</svg>
