<?xml version="1.0" standalone="no"?>
<!DOCTYPE svg PUBLIC "-//W3C//DTD SVG 20010904//EN"
 "http://www.w3.org/TR/2001/REC-SVG-20010904/DTD/svg10.dtd">
<svg version="1.0" xmlns="http://www.w3.org/2000/svg"
 width="360.000000pt" height="200.000000pt" viewBox="0 0 360.000000 200.000000"
 preserveAspectRatio="xMidYMid meet">
<metadata>
Created by potrace 1.16, written by Peter Selinger 2001-2019
</metadata>
<g transform="translate(0.000000,200.000000) scale(0.100000,-0.100000)"
fill="#000000" stroke="none">
<path d="M1512 1697 c-19 -6 -54 -29 -79 -51 l-44 -41 15 -60 c9 -32 16 -80
16 -105 0 -58 -25 -155 -52 -200 l-20 -35 32 -27 c18 -14 52 -37 76 -50 l43
-23 47 45 c46 46 104 144 104 178 0 13 -12 22 -42 32 l-43 12 35 13 c19 7 43
16 54 19 39 13 -1 196 -60 274 -27 34 -32 36 -82 19z"/>
<path d="M1600 1704 c0 -3 9 -18 19 -33 31 -44 59 -123 67 -190 l7 -61 82 0
c45 0 97 -3 114 -6 l31 -6 0 49 c0 47 -21 138 -41 176 -9 16 -12 16 -46 -2
l-37 -18 -46 33 c-25 18 -57 37 -70 42 -40 15 -80 23 -80 16z"/>
<path d="M1933 1677 c-17 -7 -34 -15 -37 -18 -3 -3 4 -30 15 -60 12 -30 24
-87 28 -128 6 -73 6 -74 40 -86 l34 -11 -42 -14 c-22 -7 -41 -18 -41 -24 0 -6
-13 -39 -29 -73 -34 -72 -97 -144 -160 -184 -58 -37 -42 -43 94 -36 125 6 172
25 240 98 70 75 98 145 103 255 5 106 -11 173 -57 247 l-31 47 -62 -1 c-35 0
-77 -6 -95 -12z"/>
<path d="M2140 1656 c0 -2 11 -28 24 -57 71 -155 46 -322 -67 -462 -26 -31
-44 -57 -40 -57 4 0 49 20 100 45 73 36 108 61 165 118 40 39 84 92 97 116
l24 43 -74 71 c-69 65 -215 187 -225 187 -2 0 -4 -2 -4 -4z"/>
<path d="M1320 1539 c-58 -51 -135 -92 -161 -84 -26 9 -24 1 16 -60 51 -76
149 -180 162 -172 19 12 54 117 60 181 5 59 -11 176 -25 176 -4 -1 -27 -19
-52 -41z"/>
<path d="M1670 1324 c0 -31 -56 -128 -102 -177 -26 -28 -47 -52 -45 -53 9 -8
103 -34 123 -34 71 0 179 92 230 196 21 41 35 76 33 78 -2 2 -31 0 -63 -5 -33
-4 -72 -6 -88 -3 -15 2 -41 6 -58 9 -22 3 -30 1 -30 -11z"/>
<path d="M2220 670 l0 -240 45 0 45 0 0 113 c0 98 3 116 18 130 20 18 49 22
69 9 23 -14 33 -64 33 -158 l0 -94 45 0 45 0 0 108 c0 59 -5 124 -10 144 -21
75 -101 109 -170 73 l-30 -16 0 86 0 85 -45 0 -45 0 0 -240z"/>
<path d="M2910 670 l0 -240 50 0 50 0 0 59 c0 33 4 63 10 66 5 3 29 -24 52
-59 l43 -66 53 0 c28 0 52 4 52 8 0 5 -29 49 -64 98 l-64 89 37 40 c20 22 47
52 60 68 l24 27 -59 0 -59 0 -40 -56 -40 -56 -3 131 -3 131 -49 0 -50 0 0
-240z"/>
<path d="M449 871 c-46 -25 -73 -80 -65 -129 7 -46 46 -85 110 -112 64 -28 86
-47 86 -76 0 -49 -67 -67 -145 -39 -21 8 -41 12 -43 10 -3 -2 -5 -21 -6 -42
l-1 -38 58 -14 c128 -30 227 27 227 130 0 69 -21 96 -106 135 -78 35 -98 57
-83 87 16 30 53 38 108 23 l49 -13 10 39 c12 48 8 51 -87 55 -61 3 -83 0 -112
-16z"/>
<path d="M1969 862 c-72 -38 -109 -97 -116 -185 -13 -155 71 -250 222 -251 39
0 83 3 99 7 26 7 28 10 21 45 -4 20 -8 38 -9 39 -1 1 -21 -3 -44 -9 -119 -30
-219 67 -192 188 20 86 70 119 171 112 l67 -5 10 34 c10 32 9 35 -14 44 -14 5
-56 9 -94 9 -55 0 -78 -5 -121 -28z"/>
<path d="M1094 756 c-124 -54 -122 -272 4 -316 38 -13 47 -13 87 1 45 16 45
16 45 -5 0 -13 -11 -33 -24 -45 -24 -23 -58 -25 -140 -10 -28 6 -46 -49 -21
-67 44 -32 155 -29 213 7 52 31 60 63 64 262 l3 177 -37 0 c-20 0 -39 -4 -43
-9 -3 -6 -17 -4 -33 5 -34 17 -77 17 -118 0z m110 -77 c25 -19 27 -26 24 -82
-3 -51 -7 -63 -29 -79 -49 -37 -102 7 -101 83 1 47 16 77 45 89 31 12 31 12
61 -11z"/>
<path d="M1420 763 c-8 -3 -25 -10 -37 -14 -20 -7 -21 -11 -11 -39 8 -23 15
-29 27 -25 34 14 89 17 110 6 36 -20 25 -38 -28 -44 -65 -8 -107 -30 -126 -67
-22 -43 -19 -84 11 -119 31 -38 76 -47 132 -28 23 8 42 11 42 6 0 -5 19 -9 43
-9 l43 0 -4 128 c-5 144 -16 176 -67 198 -34 14 -106 18 -135 7z"/>
<path d="M1775 758 c-11 -6 -26 -18 -32 -26 -11 -14 -13 -13 -13 6 0 19 -6 22
-40 22 l-40 0 0 -165 0 -165 44 0 44 0 4 104 c3 117 17 146 70 146 27 0 28 2
28 45 0 40 -2 45 -22 45 -13 0 -32 -6 -43 -12z"/>
<path d="M2730 748 c-64 -33 -90 -76 -90 -150 0 -34 7 -75 16 -94 28 -60 104
-91 189 -78 50 7 61 20 51 58 -5 21 -10 23 -55 18 -46 -4 -53 -2 -81 26 -72
72 -6 189 92 162 38 -11 37 -12 45 32 4 31 2 36 -18 41 -47 13 -106 7 -149
-15z"/>
<path d="M690 645 c0 -138 15 -185 65 -209 43 -21 73 -20 118 3 29 15 37 16
37 5 0 -10 12 -14 40 -14 l40 0 0 165 0 165 -45 0 -45 0 0 -108 c0 -102 -1
-110 -24 -131 -33 -31 -70 -22 -85 20 -6 18 -11 74 -11 125 l0 94 -45 0 -45 0
0 -115z"/>
<path d="M2530 595 l0 -165 50 0 50 0 0 165 0 165 -50 0 -50 0 0 -165z"/>
</g>
</svg>
