<?xml version="1.0" standalone="no"?>
<!DOCTYPE svg PUBLIC "-//W3C//DTD SVG 20010904//EN"
 "http://www.w3.org/TR/2001/REC-SVG-20010904/DTD/svg10.dtd">
<svg version="1.0" xmlns="http://www.w3.org/2000/svg"
 width="359.000000pt" height="200.000000pt" viewBox="0 0 359.000000 200.000000"
 preserveAspectRatio="xMidYMid meet">
<metadata>
Created by potrace 1.16, written by Peter Selinger 2001-2019
</metadata>
<g transform="translate(0.000000,200.000000) scale(0.100000,-0.100000)"
fill="#000000" stroke="none">
<path d="M1540 1322 c-40 -19 -73 -49 -79 -72 -2 -8 -5 -49 -6 -90 -2 -65 0
-78 19 -99 41 -45 124 -63 215 -45 l31 7 0 83 0 84 -69 0 c-67 0 -68 0 -63
-25 3 -20 10 -25 33 -25 27 0 29 -3 29 -40 l0 -40 -41 0 c-31 0 -47 6 -70 29
-24 25 -29 37 -29 80 0 42 5 56 29 83 28 32 33 33 100 32 67 0 71 1 71 21 0
17 -8 24 -31 29 -53 10 -102 6 -139 -12z"/>
<path d="M1989 1317 c-103 -54 -119 -213 -28 -280 31 -23 100 -32 163 -23 l45
7 3 85 3 84 -67 0 c-66 0 -68 -1 -68 -25 0 -22 4 -25 35 -25 34 0 35 -1 35
-40 0 -40 0 -40 -39 -40 -28 0 -49 8 -70 26 -17 14 -29 30 -26 34 3 5 1 11 -5
15 -33 20 17 123 69 145 18 7 50 10 76 8 42 -5 45 -4 45 17 0 28 -17 35 -79
35 -30 0 -64 -8 -92 -23z"/>
<path d="M1780 1170 l0 -160 35 0 35 0 0 160 0 160 -35 0 -35 0 0 -160z"/>
<path d="M2286 1203 c-27 -70 -55 -143 -63 -161 l-14 -33 32 3 c28 3 34 9 48
46 l15 42 61 0 61 0 14 -42 c13 -37 19 -43 46 -46 l31 -3 -16 48 c-9 26 -20
54 -24 61 -5 6 -6 16 -3 21 4 5 2 11 -3 13 -5 1 -24 41 -43 88 -31 78 -37 85
-64 88 -29 3 -30 1 -78 -125z"/>
<path d="M797 1249 c-48 -11 -126 -51 -166 -85 -49 -41 -107 -133 -121 -193
-55 -234 107 -460 343 -478 280 -21 480 240 391 510 -9 26 -18 47 -20 47 -3 0
-14 -8 -25 -19 -11 -10 -37 -27 -57 -37 -47 -24 -48 -26 -56 -85 -4 -27 -11
-49 -16 -49 -6 0 -10 -6 -10 -14 0 -14 -147 -116 -168 -116 -7 0 -12 -4 -12
-9 0 -16 -40 -23 -55 -11 -27 22 -16 47 33 79 27 17 54 31 60 31 7 0 12 4 12
8 0 4 14 16 31 26 21 12 28 21 20 29 -7 7 -25 0 -59 -22 -27 -17 -52 -31 -56
-31 -4 0 -17 -9 -29 -20 -30 -29 -71 -23 -75 10 -2 21 7 31 56 63 32 20 62 37
66 37 14 0 48 39 42 49 -4 6 -41 -12 -91 -44 -47 -30 -91 -55 -99 -55 -19 0
-39 27 -33 44 7 17 136 106 154 106 7 0 13 4 13 8 0 27 91 40 144 21 29 -10
37 -8 93 27 62 39 79 68 47 81 -9 3 -39 21 -65 39 -85 57 -193 76 -292 53z"/>
<path d="M1597 949 c-65 -7 -99 -28 -135 -80 -20 -29 -23 -44 -20 -101 3 -54
8 -72 28 -93 38 -40 73 -55 134 -55 69 0 86 7 86 34 0 21 -4 22 -58 18 -52 -4
-62 -1 -87 22 -20 18 -29 38 -32 71 -11 90 39 143 124 131 39 -5 43 -4 43 15
0 36 -20 45 -83 38z"/>
<path d="M2306 940 c-124 -38 -145 -232 -34 -300 24 -15 51 -20 101 -20 67 0
67 0 67 28 0 29 0 29 -55 24 -50 -4 -57 -2 -85 26 -24 25 -30 39 -30 76 0 24
4 56 10 70 13 35 64 59 112 53 38 -5 39 -4 36 21 -3 24 -7 27 -48 29 -25 1
-58 -2 -74 -7z"/>
<path d="M1740 780 l0 -160 30 0 30 0 0 70 0 70 70 0 70 0 0 -70 0 -70 35 0
35 0 0 160 0 160 -35 0 -35 0 0 -65 0 -65 -70 0 -70 0 0 65 0 65 -30 0 -30 0
0 -160z"/>
<path d="M2080 780 l0 -160 35 0 35 0 0 160 0 160 -35 0 -35 0 0 -160z"/>
<path d="M2500 780 l0 -160 33 0 32 0 -3 56 c-2 31 0 60 5 65 4 4 33 -20 63
-56 49 -57 59 -64 93 -64 20 -1 37 2 37 6 0 3 -32 42 -72 86 l-72 80 32 28
c18 16 32 33 32 38 0 5 10 18 23 28 13 10 26 26 30 36 5 14 0 17 -31 17 -33 0
-42 -6 -81 -55 -24 -30 -48 -55 -52 -55 -5 0 -9 25 -9 55 0 54 0 55 -30 55
l-30 0 0 -160z"/>
<path d="M2810 780 l0 -160 105 0 c105 0 105 0 105 25 0 23 -3 24 -77 27 l-78
3 -3 43 -3 42 65 0 c63 0 66 1 66 25 0 23 -4 24 -62 27 l-63 3 -3 38 -3 37 75
0 c74 0 76 1 76 25 l0 25 -100 0 -100 0 0 -160z"/>
<path d="M3078 780 l-3 -160 32 0 32 0 3 106 3 106 74 -106 c69 -98 77 -106
108 -106 l33 0 0 160 0 160 -36 0 -36 0 4 -112 c2 -81 1 -105 -6 -85 -6 15
-13 27 -18 27 -4 0 -8 7 -8 15 0 8 -4 15 -8 15 -5 0 -30 32 -57 70 -43 63 -52
70 -81 70 l-33 0 -3 -160z"/>
</g>
</svg>
