<?xml version="1.0" standalone="no"?>
<!DOCTYPE svg PUBLIC "-//W3C//DTD SVG 20010904//EN"
 "http://www.w3.org/TR/2001/REC-SVG-20010904/DTD/svg10.dtd">
<svg version="1.0" xmlns="http://www.w3.org/2000/svg"
 width="360.000000pt" height="200.000000pt" viewBox="0 0 360.000000 200.000000"
 preserveAspectRatio="xMidYMid meet">
<metadata>
Created by potrace 1.16, written by Peter Selinger 2001-2019
</metadata>
<g transform="translate(0.000000,200.000000) scale(0.100000,-0.100000)"
fill="#000000" stroke="none">
<path d="M871 1328 c-9 -31 -10 -31 -16 -10 -10 31 -25 28 -25 -5 -1 -24 -2
-25 -11 -10 -12 21 -35 22 -43 1 -10 -27 -7 -69 7 -89 12 -16 18 -16 47 -7 40
14 120 16 120 2 0 -5 11 -26 25 -46 14 -20 25 -46 25 -58 0 -17 2 -18 10 -6 5
8 10 10 10 5 0 -28 -23 -34 -52 -13 -16 11 -32 18 -34 15 -3 -3 -21 1 -39 9
-19 8 -58 14 -87 14 l-53 -1 39 -14 c22 -7 49 -23 60 -35 23 -23 24 -21 -31
-57 -17 -12 -17 -13 0 -26 9 -8 17 -19 17 -26 0 -20 39 -12 51 11 l12 22 8
-22 c10 -26 31 -28 53 -6 15 14 16 14 16 0 0 -9 7 -16 15 -16 15 0 20 22 16
67 -1 12 9 32 23 46 24 24 45 115 31 137 -4 6 -7 27 -7 46 0 43 -16 51 -57 29
-30 -15 -31 -15 -31 7 0 13 -4 30 -10 38 -7 12 -11 12 -28 -3 -19 -17 -20 -17
-26 8 -9 34 -24 31 -35 -7z"/>
<path d="M583 1200 c-6 -24 -12 -25 -28 -3 -17 23 -35 8 -35 -29 0 -25 -3 -29
-17 -23 -10 4 -30 10 -44 12 -25 5 -26 3 -32 -53 -9 -83 1 -139 29 -165 17
-16 22 -29 17 -49 -3 -15 1 -38 7 -51 12 -21 14 -21 25 -5 8 11 15 13 20 7 9
-16 43 -13 53 4 7 14 11 13 27 -5 23 -25 35 -26 35 0 0 11 7 20 15 20 23 0 18
22 -12 45 -33 27 -26 40 41 71 l51 23 -35 0 c-19 0 -53 -4 -75 -10 -22 -6 -51
-12 -64 -14 -12 -2 -33 -13 -46 -25 -21 -19 -23 -20 -36 -3 -9 11 -10 14 -1 9
8 -5 12 0 12 17 0 13 11 40 24 60 13 19 22 38 19 40 -13 13 58 16 104 4 47
-13 54 -12 68 3 17 19 20 63 5 91 -14 25 -29 24 -40 -3 -8 -22 -9 -22 -9 5 -1
33 -14 35 -28 5 -10 -22 -10 -22 -17 10 -8 36 -25 42 -33 12z"/>
<path d="M382 957 c9 -145 105 -278 233 -326 72 -27 89 -26 103 4 9 20 9 25
-3 25 -47 0 -132 47 -193 105 -54 53 -65 69 -73 110 -5 27 -16 56 -24 65 -9
10 -19 34 -22 54 -10 66 -26 40 -21 -37z"/>
<path d="M794 933 l-7 -38 -9 28 c-11 31 -27 27 -29 -6 -1 -18 -2 -19 -6 -4
-7 26 -36 17 -47 -16 -15 -41 3 -83 34 -80 14 2 50 5 80 9 l55 6 26 -44 c26
-42 45 -108 32 -108 -4 0 -15 7 -24 16 -10 9 -29 18 -41 19 -13 2 -36 8 -51
14 -16 6 -49 11 -75 11 l-47 -1 47 -20 c58 -26 68 -47 34 -72 -29 -21 -35 -47
-11 -47 8 0 15 -7 15 -15 0 -22 27 -18 43 6 l15 21 7 -21 c7 -23 34 -28 53 -9
9 9 12 9 12 0 0 -7 7 -12 15 -12 18 0 29 40 20 70 -5 15 0 26 18 40 31 25 40
71 31 161 -7 74 -18 84 -60 54 -26 -17 -34 -11 -34 27 0 32 -23 38 -39 11 -8
-16 -11 -15 -20 10 -15 38 -29 34 -37 -10z"/>
<path d="M1271 932 c-55 -27 -76 -64 -76 -132 0 -68 21 -105 76 -132 75 -39
169 -11 155 45 -6 24 -9 25 -32 17 -40 -16 -63 -12 -89 15 -63 62 8 166 85
125 13 -7 21 -6 30 5 45 55 -68 99 -149 57z"/>
<path d="M1974 931 c-91 -42 -101 -201 -16 -258 37 -24 144 -25 168 -1 15 14
16 22 6 43 -10 21 -15 24 -31 15 -55 -29 -111 6 -111 70 0 68 45 94 112 66 11
-5 20 -1 27 12 32 60 -66 93 -155 53z"/>
<path d="M3054 936 c-39 -17 -58 -63 -43 -105 10 -28 23 -38 92 -65 71 -29 26
-52 -59 -31 -27 6 -32 4 -37 -14 -18 -70 137 -98 199 -36 48 48 19 124 -57
146 -21 7 -44 18 -50 25 -15 19 35 30 67 15 32 -14 44 -7 44 29 0 23 -6 30
-31 39 -42 15 -87 13 -125 -3z"/>
<path d="M1472 803 l3 -138 38 -3 37 -3 0 55 0 56 45 0 45 0 0 -55 0 -55 40 0
41 0 -3 138 -3 137 -37 3 -38 3 0 -55 0 -56 -44 0 -45 0 -3 53 -3 52 -38 3
-38 3 3 -138z"/>
<path d="M1770 823 c0 -157 2 -163 51 -163 l40 0 -3 138 -3 137 -42 3 -43 3 0
-118z"/>
<path d="M2170 823 c0 -156 2 -163 51 -163 l39 0 0 48 0 47 41 -48 c37 -43 45
-48 78 -45 52 4 52 33 1 83 -22 21 -40 44 -40 50 0 6 16 26 35 45 53 51 46
100 -14 100 -9 0 -35 -21 -56 -47 l-40 -48 -5 45 c-5 45 -5 45 -47 48 l-43 3
0 -118z"/>
<path d="M2464 927 c-2 -7 -3 -69 -2 -138 l3 -124 98 -3 97 -3 0 31 0 30 -60
0 c-57 0 -60 1 -60 24 0 23 4 25 53 28 48 3 52 5 55 31 3 27 2 27 -52 27 -49
0 -56 3 -56 20 0 16 8 19 58 22 56 3 57 3 60 36 l3 32 -96 0 c-69 0 -97 -4
-101 -13z"/>
<path d="M2710 801 l0 -141 40 0 40 0 0 73 1 72 37 -70 37 -70 48 -3 48 -3 -3
138 -3 138 -37 3 -38 3 0 -78 0 -78 -38 75 -37 75 -47 3 -48 3 0 -140z"/>
</g>
</svg>
