<?xml version="1.0" standalone="no"?>
<!DOCTYPE svg PUBLIC "-//W3C//DTD SVG 20010904//EN"
 "http://www.w3.org/TR/2001/REC-SVG-20010904/DTD/svg10.dtd">
<svg version="1.0" xmlns="http://www.w3.org/2000/svg"
 width="360.000000pt" height="200.000000pt" viewBox="0 0 360.000000 200.000000"
 preserveAspectRatio="xMidYMid meet">
<metadata>
Created by potrace 1.16, written by Peter Selinger 2001-2019
</metadata>
<g transform="translate(0.000000,200.000000) scale(0.100000,-0.100000)"
fill="#000000" stroke="none">
<path d="M620 1418 c-179 -63 -321 -205 -372 -371 -27 -92 -22 -229 11 -299
30 -63 88 -121 153 -155 46 -23 68 -28 159 -31 93 -4 113 -1 177 21 40 14 96
40 124 59 l53 33 -210 6 c-232 6 -260 13 -295 71 -34 56 -33 94 4 261 38 172
54 205 123 267 142 125 353 67 353 -97 0 -21 -10 -84 -22 -140 l-21 -103 -89
0 c-48 0 -88 2 -88 5 0 2 9 47 21 100 12 52 18 102 15 110 -7 19 -60 20 -75 1
-13 -15 -61 -226 -61 -267 0 -24 5 -29 36 -35 19 -3 133 -3 252 2 l217 9 24
65 c36 97 36 233 0 311 -36 76 -90 133 -157 166 -49 24 -71 28 -162 31 -88 2
-115 -1 -170 -20z"/>
<path d="M1520 1065 l0 -275 65 0 65 0 0 123 c0 83 4 128 13 139 18 24 51 30
73 14 17 -13 19 -29 22 -145 l4 -131 64 0 64 0 0 115 c0 144 -12 204 -50 240
-40 38 -106 45 -155 17 l-35 -21 0 99 0 100 -65 0 -65 0 0 -275z"/>
<path d="M2430 1065 l0 -275 65 0 64 0 3 67 c2 36 8 68 13 70 6 1 28 -29 49
-67 l40 -70 138 0 138 0 0 190 0 190 -60 0 -60 0 0 -187 0 -187 -75 108 c-77
112 -80 123 -40 156 8 7 34 35 56 61 l41 49 -79 0 -78 0 -40 -62 -40 -62 -3
147 -3 147 -64 0 -65 0 0 -275z"/>
<path d="M660 1301 c-64 -20 -122 -66 -149 -119 -18 -33 -71 -280 -71 -327 0
-45 28 -97 62 -117 18 -10 77 -12 253 -10 l230 3 23 27 c57 68 70 65 -190 57
l-234 -8 -29 25 -29 25 28 134 c30 143 41 172 76 204 25 23 89 26 114 6 23
-19 19 -97 -10 -193 -5 -15 2 -18 43 -18 l49 0 17 90 c26 133 10 179 -76 215
-39 16 -67 18 -107 6z"/>
<path d="M1317 1165 c-78 -27 -127 -100 -127 -187 0 -107 63 -178 170 -193 40
-5 124 5 136 18 3 2 2 23 -2 47 l-7 42 -40 -5 c-48 -7 -101 12 -116 41 -21 40
-13 91 19 124 28 28 36 30 80 26 l50 -5 10 36 c5 20 10 41 10 47 0 25 -121 32
-183 9z"/>
<path d="M2240 1171 c-95 -31 -140 -91 -140 -189 0 -72 12 -107 48 -145 35
-37 120 -61 183 -53 75 10 76 11 70 59 l-6 42 -57 1 c-64 1 -84 13 -105 62
-31 75 27 140 113 128 l43 -5 10 47 c5 26 8 49 6 51 -9 8 -141 10 -165 2z"/>
<path d="M3097 1166 c-48 -18 -74 -41 -98 -88 -24 -47 -25 -146 -3 -195 63
-131 288 -133 354 -3 24 47 27 157 6 198 -45 86 -157 124 -259 88z m118 -101
c14 -13 25 -37 26 -52 4 -91 -15 -133 -59 -133 -51 0 -72 33 -72 110 0 41 5
56 25 75 13 14 31 25 40 25 9 0 27 -11 40 -25z"/>
<path d="M1940 980 l0 -190 60 0 60 0 0 190 0 190 -60 0 -60 0 0 -190z"/>
</g>
</svg>
