<?xml version="1.0" standalone="no"?>
<!DOCTYPE svg PUBLIC "-//W3C//DTD SVG 20010904//EN"
 "http://www.w3.org/TR/2001/REC-SVG-20010904/DTD/svg10.dtd">
<svg version="1.0" xmlns="http://www.w3.org/2000/svg"
 width="360.000000pt" height="200.000000pt" viewBox="0 0 360.000000 200.000000"
 preserveAspectRatio="xMidYMid meet">
<metadata>
Created by potrace 1.16, written by Peter Selinger 2001-2019
</metadata>
<g transform="translate(0.000000,200.000000) scale(0.100000,-0.100000)"
fill="#000000" stroke="none">
<path d="M775 1556 l0 -46 83 0 c114 0 165 -26 206 -107 12 -24 16 -61 16
-144 l0 -111 -37 73 c-63 122 -168 219 -237 219 -21 0 -24 -5 -28 -39 -3 -37
-1 -40 26 -45 71 -14 183 -179 220 -323 20 -77 20 -173 1 -219 -35 -84 -120
-153 -207 -168 -37 -7 -38 -8 -38 -48 l0 -41 50 6 c67 8 162 60 211 115 l39
45 0 -47 c0 -49 -25 -110 -56 -137 -43 -37 -82 -49 -166 -49 l-83 0 0 -46 0
-46 92 4 c145 8 225 56 277 168 20 43 21 60 21 430 0 370 -1 387 -21 430 -52
112 -132 160 -277 168 l-92 4 0 -46z"/>
<path d="M1735 1286 c-16 -7 -41 -26 -55 -41 l-25 -27 0 -208 0 -208 25 -27
c51 -55 116 -68 187 -36 68 31 73 51 73 272 0 175 -2 195 -20 224 -34 56 -121
79 -185 51z m105 -86 c18 -18 20 -33 20 -190 0 -157 -2 -172 -20 -190 -11 -11
-31 -20 -45 -20 -14 0 -34 9 -45 20 -18 18 -20 33 -20 190 0 157 2 172 20 190
11 11 31 20 45 20 14 0 34 -9 45 -20z"/>
<path d="M2995 1282 c-47 -22 -65 -55 -65 -120 0 -61 21 -94 105 -168 37 -32
73 -71 81 -86 30 -57 9 -108 -45 -108 -34 0 -58 25 -63 65 -3 28 -6 30 -43 30
-34 0 -40 -4 -43 -22 -5 -33 32 -109 63 -129 39 -25 113 -29 154 -7 52 27 73
62 73 122 0 67 -32 121 -111 186 -74 61 -99 103 -85 142 19 55 99 36 106 -26
3 -23 8 -26 47 -29 l43 -3 -7 38 c-9 51 -31 90 -60 109 -39 25 -103 28 -150 6z"/>
<path d="M1304 1275 c-3 -8 -4 -72 -2 -142 4 -146 17 -183 73 -210 l35 -17 0
-88 0 -88 40 0 40 0 0 89 c0 88 1 90 27 103 15 7 38 28 50 47 21 31 23 45 23
177 l0 144 -40 0 -40 0 0 -129 c0 -115 -2 -131 -21 -155 -24 -31 -52 -33 -79
-6 -18 18 -20 33 -20 155 l0 135 -40 0 c-27 0 -43 -5 -46 -15z"/>
<path d="M2007 1283 c-4 -3 -7 -103 -7 -222 0 -191 3 -221 19 -258 26 -55 62
-73 151 -73 l70 0 0 34 0 34 -61 4 c-45 3 -65 10 -75 23 -11 15 -14 69 -14
242 l0 223 -38 0 c-21 0 -42 -3 -45 -7z"/>
<path d="M2295 1278 c-3 -7 -4 -132 -3 -278 l3 -265 40 0 40 0 3 118 3 117 37
0 c20 0 42 -4 49 -8 22 -14 33 -63 33 -148 l0 -84 40 0 40 0 0 106 c0 109 -6
131 -46 174 l-23 25 34 110 c45 142 45 145 -3 145 l-39 0 -34 -117 c-32 -111
-36 -118 -61 -121 l-27 -3 -3 118 -3 118 -38 3 c-24 2 -39 -1 -42 -10z"/>
<path d="M2713 1270 c-57 -34 -63 -59 -63 -260 0 -201 6 -226 63 -260 24 -15
50 -20 105 -20 l72 0 0 34 0 34 -60 4 c-81 6 -93 20 -98 108 l-4 70 71 0 71 0
0 35 0 35 -71 0 -71 0 4 65 c5 83 19 97 98 103 l60 4 0 34 0 34 -72 0 c-55 0
-81 -5 -105 -20z"/>
</g>
</svg>
